<?xml version="1.0" standalone="no"?>
<!DOCTYPE svg>
<svg version="1.0" xmlns="http://www.w3.org/2000/svg"
 width="128.000000pt" height="128.000000pt" viewBox="0 0 128.000000 128.000000"
 preserveAspectRatio="xMidYMid meet">
   <style>
    :root {
        --primary-color: #000000; /* Default color */
    }
    @media (prefers-color-scheme: dark) { 
        :root {
            --primary-color: #FFFFFF; /* Dark mode color */
        }
    }
    @media (prefers-color-scheme: light) { 
        :root {
            --primary-color: #000000; /* Light mode color */
        }
    }
    path {
        fill: var(--primary-color);
    }
  </style>
 

<g transform="translate(0.000000,128.000000) scale(0.100000,-0.100000)" stroke="none">
<path d="M751 999 c-38 -42 -118 -188 -184 -339 -89 -205 -105 -270 -65 -278
24 -5 83 89 170 268 104 215 144 325 132 363 -8 25 -21 21 -53 -14z"/>
<path d="M370 769 c-57 -35 -137 -107 -161 -145 -22 -36 -22 -37 -4 -70 28
-53 168 -154 213 -154 16 0 22 6 22 23 0 24 -46 73 -115 123 -22 15 -42 30
-44 31 -3 2 32 39 77 83 60 58 82 86 82 105 0 31 -22 33 -70 4z"/>
<path d="M842 778 c-7 -7 -12 -16 -12 -20 0 -16 73 -88 121 -118 27 -18 49
-34 49 -37 0 -3 -36 -40 -80 -82 -52 -51 -80 -85 -80 -100 0 -30 22 -36 61
-15 44 22 189 165 189 185 0 63 -213 222 -248 187z"/>
</g>
</svg>
