<?xml version="1.0" standalone="no"?>
<!DOCTYPE svg PUBLIC "-//W3C//DTD SVG 20010904//EN"
 "http://www.w3.org/TR/2001/REC-SVG-20010904/DTD/svg10.dtd">
<svg version="1.0" xmlns="http://www.w3.org/2000/svg"
 width="128.000000pt" height="128.000000pt" viewBox="0 0 128.000000 128.000000"
 preserveAspectRatio="xMidYMid meet">
   <style>
    :root {
        --primary-color: #ff66c4; /* Default color */
    }
    @media (prefers-color-scheme: dark) { 
        :root {
            --primary-color: #ff66c4; /* Dark mode color */
        }
    }
    @media (prefers-color-scheme: light) { 
        :root {
            --primary-color: #ff66c4 /* Light mode color */
        }
    }
    path {
        fill: var(--primary-color);
    }
  </style>


<g transform="translate(0.000000,128.000000) scale(0.100000,-0.100000)" stroke="none">
<path d="M388 774 c-96 -52 -86 -264 13 -264 28 0 79 48 79 74 0 7 9 21 20 31
20 18 20 17 20 -23 0 -49 8 -72 25 -72 7 0 16 7 19 16 10 27 7 172 -4 179 -18
11 -40 -15 -40 -47 0 -26 -2 -28 -20 -18 -30 16 -81 8 -94 -14 -8 -14 -8 -20
2 -23 20 -7 14 -33 -8 -33 -36 0 -39 74 -4 128 19 29 34 28 34 -3 0 -14 7 -28
16 -32 41 -15 53 67 15 99 -28 22 -37 22 -73 2z"/>
<path d="M267 738 c-29 -51 -87 -182 -87 -197 0 -22 20 -10 44 27 29 43 86
174 86 196 0 28 -17 17 -43 -26z"/>
<path d="M535 770 c-3 -5 -4 -14 0 -20 8 -13 35 -1 35 16 0 16 -26 19 -35 4z"/>
<path d="M640 706 c-29 -7 -46 -17 -48 -28 -3 -15 4 -18 38 -18 l42 0 -30 -37
c-38 -50 -54 -81 -47 -93 8 -14 111 -13 137 1 14 8 23 8 31 0 14 -14 97 -14
132 -1 40 15 25 35 -24 33 l-41 -2 40 56 c42 58 48 77 29 89 -20 12 -101 5
-127 -12 -23 -15 -24 -18 -9 -29 9 -7 29 -10 43 -7 29 5 29 7 -15 -58 -21 -32
-28 -35 -71 -35 -29 0 -46 4 -42 10 3 6 18 29 34 53 16 23 28 50 26 59 -4 24
-46 32 -98 19z"/>
<path d="M943 708 c-34 -42 -20 -151 22 -170 19 -9 29 -7 50 6 28 19 29 16 14
-36 -9 -34 -13 -38 -44 -38 -40 0 -51 -12 -29 -34 21 -22 70 -20 93 3 38 38
54 170 30 240 -17 48 -43 37 -49 -21 -7 -53 -13 -63 -35 -55 -10 4 -15 19 -15
45 0 47 -21 81 -37 60z"/>
<path d="M117 665 c-62 -43 -56 -84 16 -122 44 -22 46 -5 5 31 l-37 32 36 36
c42 43 31 57 -20 23z"/>
<path d="M1115 680 c-7 -11 41 -60 58 -60 6 0 -6 -17 -26 -38 -39 -40 -45 -52
-24 -52 21 0 87 60 87 80 0 11 -15 30 -32 43 -48 35 -56 38 -63 27z"/>
</g>
</svg>
