<?xml version="1.0" encoding="UTF-8"?>
<!DOCTYPE svg PUBLIC "-//W3C//DTD SVG 1.1//EN" "http://www.w3.org/Graphics/SVG/1.1/DTD/svg11.dtd">
<svg xmlns="http://www.w3.org/2000/svg" version="1.1" width="128.000000pt" height="128.000000pt" style="shape-rendering:geometricPrecision; text-rendering:geometricPrecision; image-rendering:optimizeQuality; fill-rule:evenodd; clip-rule:evenodd" xmlns:xlink="http://www.w3.org/1999/xlink">
<g><path style="opacity:1" fill="#ee5fb7" d="M 250.5,116.5 C 252.857,116.337 255.19,116.503 257.5,117C 259.646,119.795 260.813,122.961 261,126.5C 262.098,138.289 261.432,149.956 259,161.5C 257.359,166.758 254.359,167.758 250,164.5C 248.534,160.971 247.534,157.305 247,153.5C 246.333,143.833 246.333,134.167 247,124.5C 247.906,121.69 249.073,119.024 250.5,116.5 Z"/></g>
<g><path style="opacity:1" fill="#ec5eb5" d="M 83.5,163.5 C 86.978,165.33 89.3114,164.33 90.5,160.5C 91.404,159.791 91.7373,158.791 91.5,157.5C 90.5,157.5 89.5,157.5 88.5,157.5C 88.0269,156.094 87.0269,155.427 85.5,155.5C 84.126,150.389 86.126,147.222 91.5,146C 96.5,145.333 101.5,145.333 106.5,146C 108.32,146.2 109.653,147.034 110.5,148.5C 110.5,150.167 110.5,151.833 110.5,153.5C 109.879,156.121 108.212,157.788 105.5,158.5C 103.236,170.259 96.4025,177.593 85,180.5C 76.0486,178.215 70.3819,172.549 68,163.5C 64.074,146.618 68.2406,132.118 80.5,120C 91.1964,113.667 99.3631,115.834 105,126.5C 106.347,132.598 105.18,138.098 101.5,143C 98.5337,143.895 95.8671,143.395 93.5,141.5C 92.5741,137.906 92.2408,134.24 92.5,130.5C 86.355,130.806 82.855,134.14 82,140.5C 79.991,147.181 79.6577,153.847 81,160.5C 81.3768,161.942 82.2101,162.942 83.5,163.5 Z"/></g>
<g><path style="opacity:1" fill="#e05aac" d="M 40.5,175.5 C 39.5,175.5 38.5,175.5 37.5,175.5C 37.5,173.167 37.5,170.833 37.5,168.5C 43.0277,152.084 50.1943,136.417 59,121.5C 60.7155,118.603 63.2155,117.269 66.5,117.5C 65.8664,125.571 63.6998,133.238 60,140.5C 55.0075,153.165 48.5075,164.832 40.5,175.5 Z"/></g>
<g><path style="opacity:1" fill="#d655a5" d="M 117.5,118.5 C 123.662,117.156 125.662,119.322 123.5,125C 119.386,128.782 116.053,128.282 113.5,123.5C 114.16,121.185 115.493,119.519 117.5,118.5 Z"/></g>
<g><path style="opacity:1" fill="#ec5eb5" d="M 112.5,168.5 C 112.5,159.833 112.5,151.167 112.5,142.5C 112.557,138.495 113.89,134.995 116.5,132C 122.474,131.339 125.307,134.172 125,140.5C 125.667,148.5 125.667,156.5 125,164.5C 124.743,168.377 123.743,172.043 122,175.5C 115.287,178.661 112.121,176.327 112.5,168.5 Z"/></g>
<g><path style="opacity:1" fill="#e95db3" d="M 164.5,166.5 C 165.641,168.549 165.641,170.549 164.5,172.5C 163.025,174.41 161.025,175.576 158.5,176C 148.851,179.371 139.351,179.204 130,175.5C 128.195,172.878 128.195,170.211 130,167.5C 134.688,160.114 139.855,153.114 145.5,146.5C 146.289,146.217 146.956,145.717 147.5,145C 145.934,144.235 144.601,144.402 143.5,145.5C 138.683,147.771 134.017,147.605 129.5,145C 126.813,141.697 127.479,139.031 131.5,137C 141.372,132.042 151.372,131.542 161.5,135.5C 163.395,137.867 163.895,140.534 163,143.5C 157.869,151.596 152.369,159.429 146.5,167C 150.25,166.523 154.083,166.023 158,165.5C 160.216,165.653 162.383,165.986 164.5,166.5 Z"/></g>
<g><path style="opacity:1" fill="#ea5db3" d="M 201.5,166.5 C 202.038,168.117 202.371,169.784 202.5,171.5C 201.106,173.708 199.106,175.208 196.5,176C 187.561,178.632 178.561,178.965 169.5,177C 167.574,176.578 166.574,175.411 166.5,173.5C 166.366,171.708 166.699,170.042 167.5,168.5C 171.501,160.502 176.501,153.169 182.5,146.5C 183.289,146.217 183.956,145.717 184.5,145C 182.934,144.235 181.601,144.402 180.5,145.5C 175.683,147.771 171.017,147.605 166.5,145C 164.006,142.756 164.006,140.423 166.5,138C 176.884,132.212 187.55,131.378 198.5,135.5C 200.395,137.867 200.895,140.534 200,143.5C 194.869,151.596 189.369,159.429 183.5,167C 187.431,166.626 191.431,166.126 195.5,165.5C 197.548,165.672 199.548,166.005 201.5,166.5 Z"/></g>
<g><path style="opacity:1" fill="#ec5eb6" d="M 228.5,171.5 C 229.613,170.054 229.78,168.387 229,166.5C 228.283,167.044 227.783,167.711 227.5,168.5C 221.783,175.692 215.283,176.359 208,170.5C 201.731,158.178 201.397,145.845 207,133.5C 212.229,131.099 215.229,132.765 216,138.5C 216.333,144.167 216.667,149.833 217,155.5C 218.305,158.306 220.472,159.14 223.5,158C 224.701,157.097 225.535,155.931 226,154.5C 226.333,149.5 226.667,144.5 227,139.5C 227.729,133.902 230.563,132.068 235.5,134C 237.652,136.469 239.152,139.302 240,142.5C 242.224,156.238 241.89,169.905 239,183.5C 234.86,199.488 225.36,203.988 210.5,197C 206.633,193.582 206.633,190.249 210.5,187C 213.72,186.843 216.887,187.343 220,188.5C 222.151,188.357 223.818,187.357 225,185.5C 227.109,181.064 228.276,176.397 228.5,171.5 Z"/></g>
<g><path style="opacity:0.518" fill="#562442" d="M 29.5,139.5 C 29.9169,138.876 30.5836,138.543 31.5,138.5C 32.7133,138.747 33.38,139.414 33.5,140.5C 32.2921,139.766 30.9587,139.433 29.5,139.5 Z"/></g>
<g><path style="opacity:1" fill="#df59ab" d="M 29.5,139.5 C 30.9587,139.433 32.2921,139.766 33.5,140.5C 33.5086,142.308 33.0086,143.975 32,145.5C 27.8006,150.034 23.3006,154.201 18.5,158C 24.1523,160.75 28.9856,164.583 33,169.5C 33.4935,171.134 33.6602,172.801 33.5,174.5C 25.088,172.963 17.9213,168.963 12,162.5C 10.5783,159.97 10.245,157.303 11,154.5C 12.8123,151.72 14.979,149.22 17.5,147C 21.0518,143.727 25.0518,141.227 29.5,139.5 Z"/></g>
<g><path style="opacity:1" fill="#dd58aa" d="M 265.5,139.5 C 276.306,141.056 283.972,146.723 288.5,156.5C 284.477,165.521 277.81,171.854 268.5,175.5C 265.754,174.904 264.92,173.237 266,170.5C 270.009,165.325 274.509,160.658 279.5,156.5C 275.464,153.057 271.297,149.724 267,146.5C 265.171,144.267 264.671,141.933 265.5,139.5 Z"/></g>
<g><path style="opacity:0.212" fill="#411b32" d="M 143.5,145.5 C 144.601,144.402 145.934,144.235 147.5,145C 146.956,145.717 146.289,146.217 145.5,146.5C 145.158,145.662 144.492,145.328 143.5,145.5 Z"/></g>
<g><path style="opacity:0.255" fill="#411b32" d="M 180.5,145.5 C 181.601,144.402 182.934,144.235 184.5,145C 183.956,145.717 183.289,146.217 182.5,146.5C 182.158,145.662 181.492,145.328 180.5,145.5 Z"/></g>
<g><path style="opacity:0.671" fill="#813464" d="M 112.5,142.5 C 112.5,151.167 112.5,159.833 112.5,168.5C 111.833,163.5 111.167,158.5 110.5,153.5C 110.5,151.833 110.5,150.167 110.5,148.5C 111.167,146.5 111.833,144.5 112.5,142.5 Z"/></g>
<g><path style="opacity:0.765" fill="#622b4c" d="M 85.5,155.5 C 87.0269,155.427 88.0269,156.094 88.5,157.5C 86.9731,157.573 85.9731,156.906 85.5,155.5 Z"/></g>
<g><path style="opacity:0.247" fill="#5a2545" d="M 88.5,157.5 C 89.5,157.5 90.5,157.5 91.5,157.5C 91.7373,158.791 91.404,159.791 90.5,160.5C 90.2178,159.222 89.5511,158.222 88.5,157.5 Z"/></g>
<g><path style="opacity:0.91" fill="#7c335f" d="M 90.5,160.5 C 89.3114,164.33 86.978,165.33 83.5,163.5C 86.4534,163.85 88.7867,162.85 90.5,160.5 Z"/></g>
<g><path style="opacity:0.012" fill="#2f1425" d="M 228.5,171.5 C 228.737,170.209 228.404,169.209 227.5,168.5C 227.783,167.711 228.283,167.044 229,166.5C 229.78,168.387 229.613,170.054 228.5,171.5 Z"/></g>
<g><path style="opacity:0.494" fill="#682a50" d="M 164.5,166.5 C 165.5,167.167 166.5,167.833 167.5,168.5C 166.699,170.042 166.366,171.708 166.5,173.5C 165.833,173.167 165.167,172.833 164.5,172.5C 165.641,170.549 165.641,168.549 164.5,166.5 Z"/></g>
<g><path style="opacity:0.502" fill="#692c51" d="M 201.5,166.5 C 203.597,167.879 203.93,169.545 202.5,171.5C 202.371,169.784 202.038,168.117 201.5,166.5 Z"/></g>
<g><path style="opacity:1" fill="#d0539f" d="M 252.5,169.5 C 259.602,169.073 261.602,171.907 258.5,178C 254.808,180.159 251.308,179.993 248,177.5C 247.172,173.5 248.672,170.834 252.5,169.5 Z"/></g>
<g><path style="opacity:0.702" fill="#7b325e" d="M 37.5,168.5 C 37.5,170.833 37.5,173.167 37.5,175.5C 38.5,175.5 39.5,175.5 40.5,175.5C 39.4324,176.434 38.099,176.768 36.5,176.5C 36.1936,173.615 36.5269,170.948 37.5,168.5 Z"/></g>
</svg>
